<svg width="1270" height="720" xmlns="http://www.w3.org/2000/svg" xmlns:xlink="http://www.w3.org/1999/xlink" version="1.1" baseProfile="full" viewBox="0 0 1270 720">
<rect width="1270" height="720" x="0" y="0" fill="none"></rect>
<path d="M76.3 678.5L1219.2 678.5" fill="transparent" stroke="#E0E6F1" class="zr0-cls-0"></path>
<path d="M76.3 575.5L1219.2 575.5" fill="transparent" stroke="#E0E6F1" class="zr0-cls-0"></path>
<path d="M76.3 472.5L1219.2 472.5" fill="transparent" stroke="#E0E6F1" class="zr0-cls-0"></path>
<path d="M76.3 369.5L1219.2 369.5" fill="transparent" stroke="#E0E6F1" class="zr0-cls-0"></path>
<path d="M76.3 266.5L1219.2 266.5" fill="transparent" stroke="#E0E6F1" class="zr0-cls-0"></path>
<path d="M76.3 163.5L1219.2 163.5" fill="transparent" stroke="#E0E6F1" class="zr0-cls-0"></path>
<path d="M76.3 60.5L1219.2 60.5" fill="transparent" stroke="#E0E6F1" class="zr0-cls-0"></path>
<path d="M76.3 678.5L1219.2 678.5" fill="transparent" stroke="#6E7079" stroke-linecap="round" class="zr0-cls-0"></path>
<path d="M76.5 678.4L76.5 683.4" fill="transparent" stroke="#6E7079" class="zr0-cls-0"></path>
<path d="M267.5 678.4L267.5 683.4" fill="transparent" stroke="#6E7079" class="zr0-cls-0"></path>
<path d="M457.5 678.4L457.5 683.4" fill="transparent" stroke="#6E7079" class="zr0-cls-0"></path>
<path d="M648.5 678.4L648.5 683.4" fill="transparent" stroke="#6E7079" class="zr0-cls-0"></path>
<path d="M838.5 678.4L838.5 683.4" fill="transparent" stroke="#6E7079" class="zr0-cls-0"></path>
<path d="M1028.5 678.4L1028.5 683.4" fill="transparent" stroke="#6E7079" class="zr0-cls-0"></path>
<path d="M1219.5 678.4L1219.5 683.4" fill="transparent" stroke="#6E7079" class="zr0-cls-0"></path>
<text dominant-baseline="central" text-anchor="end" style="font-size:12px;font-family:sans-serif;" transform="translate(68.34 678.4)" fill="#6E7079">0</text>
<text dominant-baseline="central" text-anchor="end" style="font-size:12px;font-family:sans-serif;" transform="translate(68.34 575.3333)" fill="#6E7079">500</text>
<text dominant-baseline="central" text-anchor="end" style="font-size:12px;font-family:sans-serif;" transform="translate(68.34 472.2667)" fill="#6E7079">1,000</text>
<text dominant-baseline="central" text-anchor="end" style="font-size:12px;font-family:sans-serif;" transform="translate(68.34 369.2)" fill="#6E7079">1,500</text>
<text dominant-baseline="central" text-anchor="end" style="font-size:12px;font-family:sans-serif;" transform="translate(68.34 266.1333)" fill="#6E7079">2,000</text>
<text dominant-baseline="central" text-anchor="end" style="font-size:12px;font-family:sans-serif;" transform="translate(68.34 163.0667)" fill="#6E7079">2,500</text>
<text dominant-baseline="central" text-anchor="end" style="font-size:12px;font-family:sans-serif;" transform="translate(68.34 60)" fill="#6E7079">3,000</text>
<text dominant-baseline="central" text-anchor="middle" style="font-size:12px;font-family:sans-serif;" y="6" transform="translate(76.34 686.4)" fill="#6E7079">Mon</text>
<text dominant-baseline="central" text-anchor="middle" style="font-size:12px;font-family:sans-serif;" y="6" transform="translate(266.8167 686.4)" fill="#6E7079">Tue</text>
<text dominant-baseline="central" text-anchor="middle" style="font-size:12px;font-family:sans-serif;" y="6" transform="translate(457.2933 686.4)" fill="#6E7079">Wed</text>
<text dominant-baseline="central" text-anchor="middle" style="font-size:12px;font-family:sans-serif;" y="6" transform="translate(647.77 686.4)" fill="#6E7079">Thu</text>
<text dominant-baseline="central" text-anchor="middle" style="font-size:12px;font-family:sans-serif;" y="6" transform="translate(838.2467 686.4)" fill="#6E7079">Fri</text>
<text dominant-baseline="central" text-anchor="middle" style="font-size:12px;font-family:sans-serif;" y="6" transform="translate(1028.7233 686.4)" fill="#6E7079">Sat</text>
<text dominant-baseline="central" text-anchor="middle" style="font-size:12px;font-family:sans-serif;" y="6" transform="translate(1219.2 686.4)" fill="#6E7079">Sun</text>
<g clip-path="url(#zr0-c0)">
<path d="M76.3 653.7L266.8 651.2L457.3 657.6L647.8 650.8L838.2 659.8L1028.7 631L1219.2 635.1L1219.2 678.4L1028.7 678.4L838.2 678.4L647.8 678.4L457.3 678.4L266.8 678.4L76.3 678.4Z" fill="#5470c6" fill-opacity="0.7" class="zr0-cls-2"></path>
</g>
<g clip-path="url(#zr0-c1)">
<path d="M76.3 608.3L266.8 613.7L457.3 618.2L647.8 602.5L838.2 600.1L1028.7 563L1219.2 571.2L1219.2 635.1L1028.7 631L838.2 659.8L647.8 650.8L457.3 657.6L266.8 651.2L76.3 653.7Z" fill="#91cc75" fill-opacity="0.7" class="zr0-cls-3"></path>
</g>
<g clip-path="url(#zr0-c2)">
<path d="M76.3 577.4L266.8 565.9L457.3 576.8L647.8 570.8L838.2 560.9L1028.7 494.9L1219.2 486.7L1219.2 571.2L1028.7 563L838.2 600.1L647.8 602.5L457.3 618.2L266.8 613.7L76.3 608.3Z" fill="#fac858" fill-opacity="0.7" class="zr0-cls-4"></path>
</g>
<g clip-path="url(#zr0-c3)">
<path d="M76.3 511.4L266.8 497.4L457.3 514.7L647.8 501.9L838.2 480.5L1028.7 426.9L1219.2 420.7L1219.2 486.7L1028.7 494.9L838.2 560.9L647.8 570.8L457.3 576.8L266.8 565.9L76.3 577.4Z" fill="#ee6666" fill-opacity="0.7" class="zr0-cls-5"></path>
</g>
<g clip-path="url(#zr0-c4)">
<path d="M76.3 342.4L266.8 305.3L457.3 329L647.8 309.4L838.2 214.6L1028.7 152.8L1219.2 148.6L1219.2 420.7L1028.7 426.9L838.2 480.5L647.8 501.9L457.3 514.7L266.8 497.4L76.3 511.4Z" fill="#73c0de" fill-opacity="0.7" class="zr0-cls-6"></path>
</g>
<g clip-path="url(#zr0-c0)">
<path d="M76.3 653.7L266.8 651.2L457.3 657.6L647.8 650.8L838.2 659.8L1028.7 631L1219.2 635.1" fill="transparent" stroke="#5470c6" stroke-width="2" stroke-linejoin="bevel" class="zr0-cls-7"></path>
</g>
<g clip-path="url(#zr0-c1)">
<path d="M76.3 608.3L266.8 613.7L457.3 618.2L647.8 602.5L838.2 600.1L1028.7 563L1219.2 571.2" fill="transparent" stroke="#91cc75" stroke-width="2" stroke-linejoin="bevel" class="zr0-cls-7"></path>
</g>
<g clip-path="url(#zr0-c2)">
<path d="M76.3 577.4L266.8 565.9L457.3 576.8L647.8 570.8L838.2 560.9L1028.7 494.9L1219.2 486.7" fill="transparent" stroke="#fac858" stroke-width="2" stroke-linejoin="bevel" class="zr0-cls-7"></path>
</g>
<g clip-path="url(#zr0-c3)">
<path d="M76.3 511.4L266.8 497.4L457.3 514.7L647.8 501.9L838.2 480.5L1028.7 426.9L1219.2 420.7" fill="transparent" stroke="#ee6666" stroke-width="2" stroke-linejoin="bevel" class="zr0-cls-7"></path>
</g>
<g clip-path="url(#zr0-c4)">
<path d="M76.3 342.4L266.8 305.3L457.3 329L647.8 309.4L838.2 214.6L1028.7 152.8L1219.2 148.6" fill="transparent" stroke="#73c0de" stroke-width="2" stroke-linejoin="bevel" class="zr0-cls-7"></path>
</g>
<path d="M1 0A1 1 0 1 1 1 -0.1A1 1 0 0 1 1 0" transform="matrix(2,0,0,2,76.34,653.664)" fill="#fff" stroke="#5470c6" ecmeta_series_index="0" ecmeta_data_index="0" ecmeta_ssr_type="chart" class="zr0-cls-8"></path>
<path d="M1 0A1 1 0 1 1 1 -0.1A1 1 0 0 1 1 0" transform="matrix(2,0,0,2,266.8167,651.1904)" fill="#fff" stroke="#5470c6" ecmeta_series_index="0" ecmeta_data_index="1" ecmeta_ssr_type="chart" class="zr0-cls-8"></path>
<path d="M1 0A1 1 0 1 1 1 -0.1A1 1 0 0 1 1 0" transform="matrix(2,0,0,2,457.2933,657.5805)" fill="#fff" stroke="#5470c6" ecmeta_series_index="0" ecmeta_data_index="2" ecmeta_ssr_type="chart" class="zr0-cls-8"></path>
<path d="M1 0A1 1 0 1 1 1 -0.1A1 1 0 0 1 1 0" transform="matrix(2,0,0,2,647.77,650.7781)" fill="#fff" stroke="#5470c6" ecmeta_series_index="0" ecmeta_data_index="3" ecmeta_ssr_type="chart" class="zr0-cls-8"></path>
<path d="M1 0A1 1 0 1 1 1 -0.1A1 1 0 0 1 1 0" transform="matrix(2,0,0,2,838.2466,659.848)" fill="#fff" stroke="#5470c6" ecmeta_series_index="0" ecmeta_data_index="4" ecmeta_ssr_type="chart" class="zr0-cls-8"></path>
<path d="M1 0A1 1 0 1 1 1 -0.1A1 1 0 0 1 1 0" transform="matrix(2,0,0,2,1028.7234,630.9893)" fill="#fff" stroke="#5470c6" ecmeta_series_index="0" ecmeta_data_index="5" ecmeta_ssr_type="chart" class="zr0-cls-8"></path>
<path d="M1 0A1 1 0 1 1 1 -0.1A1 1 0 0 1 1 0" transform="matrix(2,0,0,2,1219.2,635.112)" fill="#fff" stroke="#5470c6" ecmeta_series_index="0" ecmeta_data_index="6" ecmeta_ssr_type="chart" class="zr0-cls-8"></path>
<path d="M1 0A1 1 0 1 1 1 -0.1A1 1 0 0 1 1 0" transform="matrix(2,0,0,2,76.34,608.3146)" fill="#fff" stroke="#91cc75" ecmeta_series_index="1" ecmeta_data_index="0" ecmeta_ssr_type="chart" class="zr0-cls-8"></path>
<path d="M1 0A1 1 0 1 1 1 -0.1A1 1 0 0 1 1 0" transform="matrix(2,0,0,2,266.8167,613.6741)" fill="#fff" stroke="#91cc75" ecmeta_series_index="1" ecmeta_data_index="1" ecmeta_ssr_type="chart" class="zr0-cls-8"></path>
<path d="M1 0A1 1 0 1 1 1 -0.1A1 1 0 0 1 1 0" transform="matrix(2,0,0,2,457.2933,618.209)" fill="#fff" stroke="#91cc75" ecmeta_series_index="1" ecmeta_data_index="2" ecmeta_ssr_type="chart" class="zr0-cls-8"></path>
<path d="M1 0A1 1 0 1 1 1 -0.1A1 1 0 0 1 1 0" transform="matrix(2,0,0,2,647.77,602.5429)" fill="#fff" stroke="#91cc75" ecmeta_series_index="1" ecmeta_data_index="3" ecmeta_ssr_type="chart" class="zr0-cls-8"></path>
<path d="M1 0A1 1 0 1 1 1 -0.1A1 1 0 0 1 1 0" transform="matrix(2,0,0,2,838.2466,600.0693)" fill="#fff" stroke="#91cc75" ecmeta_series_index="1" ecmeta_data_index="4" ecmeta_ssr_type="chart" class="zr0-cls-8"></path>
<path d="M1 0A1 1 0 1 1 1 -0.1A1 1 0 0 1 1 0" transform="matrix(2,0,0,2,1028.7234,562.9653)" fill="#fff" stroke="#91cc75" ecmeta_series_index="1" ecmeta_data_index="5" ecmeta_ssr_type="chart" class="zr0-cls-8"></path>
<path d="M1 0A1 1 0 1 1 1 -0.1A1 1 0 0 1 1 0" transform="matrix(2,0,0,2,1219.2,571.2107)" fill="#fff" stroke="#91cc75" ecmeta_series_index="1" ecmeta_data_index="6" ecmeta_ssr_type="chart" class="zr0-cls-8"></path>
<path d="M1 0A1 1 0 1 1 1 -0.1A1 1 0 0 1 1 0" transform="matrix(2,0,0,2,76.34,577.3947)" fill="#fff" stroke="#fac858" ecmeta_series_index="2" ecmeta_data_index="0" ecmeta_ssr_type="chart" class="zr0-cls-8"></path>
<path d="M1 0A1 1 0 1 1 1 -0.1A1 1 0 0 1 1 0" transform="matrix(2,0,0,2,266.8167,565.8512)" fill="#fff" stroke="#fac858" ecmeta_series_index="2" ecmeta_data_index="1" ecmeta_ssr_type="chart" class="zr0-cls-8"></path>
<path d="M1 0A1 1 0 1 1 1 -0.1A1 1 0 0 1 1 0" transform="matrix(2,0,0,2,457.2933,576.7762)" fill="#fff" stroke="#fac858" ecmeta_series_index="2" ecmeta_data_index="2" ecmeta_ssr_type="chart" class="zr0-cls-8"></path>
<path d="M1 0A1 1 0 1 1 1 -0.1A1 1 0 0 1 1 0" transform="matrix(2,0,0,2,647.77,570.7984)" fill="#fff" stroke="#fac858" ecmeta_series_index="2" ecmeta_data_index="3" ecmeta_ssr_type="chart" class="zr0-cls-8"></path>
<path d="M1 0A1 1 0 1 1 1 -0.1A1 1 0 0 1 1 0" transform="matrix(2,0,0,2,838.2466,560.904)" fill="#fff" stroke="#fac858" ecmeta_series_index="2" ecmeta_data_index="4" ecmeta_ssr_type="chart" class="zr0-cls-8"></path>
<path d="M1 0A1 1 0 1 1 1 -0.1A1 1 0 0 1 1 0" transform="matrix(2,0,0,2,1028.7234,494.9413)" fill="#fff" stroke="#fac858" ecmeta_series_index="2" ecmeta_data_index="5" ecmeta_ssr_type="chart" class="zr0-cls-8"></path>
<path d="M1 0A1 1 0 1 1 1 -0.1A1 1 0 0 1 1 0" transform="matrix(2,0,0,2,1219.2,486.696)" fill="#fff" stroke="#fac858" ecmeta_series_index="2" ecmeta_data_index="6" ecmeta_ssr_type="chart" class="zr0-cls-8"></path>
<path d="M1 0A1 1 0 1 1 1 -0.1A1 1 0 0 1 1 0" transform="matrix(2,0,0,2,76.34,511.432)" fill="#fff" stroke="#ee6666" ecmeta_series_index="3" ecmeta_data_index="0" ecmeta_ssr_type="chart" class="zr0-cls-8"></path>
<path d="M1 0A1 1 0 1 1 1 -0.1A1 1 0 0 1 1 0" transform="matrix(2,0,0,2,266.8167,497.4149)" fill="#fff" stroke="#ee6666" ecmeta_series_index="3" ecmeta_data_index="1" ecmeta_ssr_type="chart" class="zr0-cls-8"></path>
<path d="M1 0A1 1 0 1 1 1 -0.1A1 1 0 0 1 1 0" transform="matrix(2,0,0,2,457.2933,514.7302)" fill="#fff" stroke="#ee6666" ecmeta_series_index="3" ecmeta_data_index="2" ecmeta_ssr_type="chart" class="zr0-cls-8"></path>
<path d="M1 0A1 1 0 1 1 1 -0.1A1 1 0 0 1 1 0" transform="matrix(2,0,0,2,647.77,501.9499)" fill="#fff" stroke="#ee6666" ecmeta_series_index="3" ecmeta_data_index="3" ecmeta_ssr_type="chart" class="zr0-cls-8"></path>
<path d="M1 0A1 1 0 1 1 1 -0.1A1 1 0 0 1 1 0" transform="matrix(2,0,0,2,838.2466,480.512)" fill="#fff" stroke="#ee6666" ecmeta_series_index="3" ecmeta_data_index="4" ecmeta_ssr_type="chart" class="zr0-cls-8"></path>
<path d="M1 0A1 1 0 1 1 1 -0.1A1 1 0 0 1 1 0" transform="matrix(2,0,0,2,1028.7234,426.9173)" fill="#fff" stroke="#ee6666" ecmeta_series_index="3" ecmeta_data_index="5" ecmeta_ssr_type="chart" class="zr0-cls-8"></path>
<path d="M1 0A1 1 0 1 1 1 -0.1A1 1 0 0 1 1 0" transform="matrix(2,0,0,2,1219.2,420.7333)" fill="#fff" stroke="#ee6666" ecmeta_series_index="3" ecmeta_data_index="6" ecmeta_ssr_type="chart" class="zr0-cls-8"></path>
<path d="M1 0A1 1 0 1 1 1 -0.1A1 1 0 0 1 1 0" transform="matrix(2,0,0,2,76.34,342.4027)" fill="#fff" stroke="#73c0de" ecmeta_series_index="4" ecmeta_data_index="0" ecmeta_ssr_type="chart" class="zr0-cls-8"></path>
<path d="M1 0A1 1 0 1 1 1 -0.1A1 1 0 0 1 1 0" transform="matrix(2,0,0,2,266.8167,305.2987)" fill="#fff" stroke="#73c0de" ecmeta_series_index="4" ecmeta_data_index="1" ecmeta_ssr_type="chart" class="zr0-cls-8"></path>
<path d="M1 0A1 1 0 1 1 1 -0.1A1 1 0 0 1 1 0" transform="matrix(2,0,0,2,457.2933,329.004)" fill="#fff" stroke="#73c0de" ecmeta_series_index="4" ecmeta_data_index="2" ecmeta_ssr_type="chart" class="zr0-cls-8"></path>
<path d="M1 0A1 1 0 1 1 1 -0.1A1 1 0 0 1 1 0" transform="matrix(2,0,0,2,647.77,309.4213)" fill="#fff" stroke="#73c0de" ecmeta_series_index="4" ecmeta_data_index="3" ecmeta_ssr_type="chart" class="zr0-cls-8"></path>
<path d="M1 0A1 1 0 1 1 1 -0.1A1 1 0 0 1 1 0" transform="matrix(2,0,0,2,838.2466,214.6)" fill="#fff" stroke="#73c0de" ecmeta_series_index="4" ecmeta_data_index="4" ecmeta_ssr_type="chart" class="zr0-cls-8"></path>
<path d="M1 0A1 1 0 1 1 1 -0.1A1 1 0 0 1 1 0" transform="matrix(2,0,0,2,1028.7234,152.76)" fill="#fff" stroke="#73c0de" ecmeta_series_index="4" ecmeta_data_index="5" ecmeta_ssr_type="chart" class="zr0-cls-8"></path>
<path d="M1 0A1 1 0 1 1 1 -0.1A1 1 0 0 1 1 0" transform="matrix(2,0,0,2,1219.2,148.6373)" fill="#fff" stroke="#73c0de" ecmeta_series_index="4" ecmeta_data_index="6" ecmeta_ssr_type="chart" class="zr0-cls-8"></path>
<text dominant-baseline="central" text-anchor="middle" style="font-size:12px;font-family:sans-serif;" y="-6" transform="translate(76.34 334.4027)" fill="#333" stroke="rgb(255,255,255)" stroke-width="2" paint-order="stroke" stroke-miterlimit="2">820</text>
<text dominant-baseline="central" text-anchor="middle" style="font-size:12px;font-family:sans-serif;" y="-6" transform="translate(266.8167 297.2987)" fill="#333" stroke="rgb(255,255,255)" stroke-width="2" paint-order="stroke" stroke-miterlimit="2">932</text>
<text dominant-baseline="central" text-anchor="middle" style="font-size:12px;font-family:sans-serif;" y="-6" transform="translate(457.2933 321.004)" fill="#333" stroke="rgb(255,255,255)" stroke-width="2" paint-order="stroke" stroke-miterlimit="2">901</text>
<text dominant-baseline="central" text-anchor="middle" style="font-size:12px;font-family:sans-serif;" y="-6" transform="translate(647.77 301.4213)" fill="#333" stroke="rgb(255,255,255)" stroke-width="2" paint-order="stroke" stroke-miterlimit="2">934</text>
<text dominant-baseline="central" text-anchor="middle" style="font-size:12px;font-family:sans-serif;" y="-6" transform="translate(838.2466 206.6)" fill="#333" stroke="rgb(255,255,255)" stroke-width="2" paint-order="stroke" stroke-miterlimit="2">1290</text>
<text dominant-baseline="central" text-anchor="middle" style="font-size:12px;font-family:sans-serif;" y="-6" transform="translate(1028.7234 144.76)" fill="#333" stroke="rgb(255,255,255)" stroke-width="2" paint-order="stroke" stroke-miterlimit="2">1330</text>
<text dominant-baseline="central" text-anchor="middle" style="font-size:12px;font-family:sans-serif;" y="-6" transform="translate(1219.2 140.6373)" fill="#333" stroke="rgb(255,255,255)" stroke-width="2" paint-order="stroke" stroke-miterlimit="2">1320</text>
<path d="M-5 -5l455.9 0l0 23.2l-455.9 0Z" transform="translate(412.04 5)" fill="rgb(0,0,0)" fill-opacity="0" stroke="#ccc" stroke-width="0" class="zr0-cls-0"></path>
<path d="M0 7L25 7" transform="translate(413.04 4.6)" fill="#000" stroke="#5470c6" stroke-width="2" stroke-linecap="butt" stroke-miterlimit="10" class="zr0-cls-0"></path>
<path d="M18.1 7A5.6 5.6 0 1 1 18.1 6.4A5.6 5.6 0 0 1 18.1 7" transform="translate(413.04 4.6)" fill="#fff" stroke="#5470c6" stroke-width="2" stroke-linecap="butt" stroke-miterlimit="10" class="zr0-cls-0"></path>
<text dominant-baseline="central" text-anchor="start" style="font-size:12px;font-family:sans-serif;" x="30" y="7" transform="translate(413.04 4.6)" fill="#333">Email</text>
<path d="M-1 0.4l61 0l0 13.2l-61 0Z" transform="translate(413.04 4.6)" fill="transparent" ecmeta_series_index="0" ecmeta_data_index="0" ecmeta_ssr_type="legend" class="zr0-cls-9"></path>
<path d="M0 7L25 7" transform="translate(484.04 4.6)" fill="#000" stroke="#91cc75" stroke-width="2" stroke-linecap="butt" stroke-miterlimit="10" class="zr0-cls-0"></path>
<path d="M18.1 7A5.6 5.6 0 1 1 18.1 6.4A5.6 5.6 0 0 1 18.1 7" transform="translate(484.04 4.6)" fill="#fff" stroke="#91cc75" stroke-width="2" stroke-linecap="butt" stroke-miterlimit="10" class="zr0-cls-0"></path>
<text dominant-baseline="central" text-anchor="start" style="font-size:12px;font-family:sans-serif;" xml:space="preserve" x="30" y="7" transform="translate(484.04 4.6)" fill="#333">Union Ads</text>
<path d="M-1 0.4l86.6 0l0 13.2l-86.6 0Z" transform="translate(484.04 4.6)" fill="transparent" ecmeta_series_index="1" ecmeta_data_index="1" ecmeta_ssr_type="legend" class="zr0-cls-9"></path>
<path d="M0 7L25 7" transform="translate(580.6 4.6)" fill="#000" stroke="#fac858" stroke-width="2" stroke-linecap="butt" stroke-miterlimit="10" class="zr0-cls-0"></path>
<path d="M18.1 7A5.6 5.6 0 1 1 18.1 6.4A5.6 5.6 0 0 1 18.1 7" transform="translate(580.6 4.6)" fill="#fff" stroke="#fac858" stroke-width="2" stroke-linecap="butt" stroke-miterlimit="10" class="zr0-cls-0"></path>
<text dominant-baseline="central" text-anchor="start" style="font-size:12px;font-family:sans-serif;" xml:space="preserve" x="30" y="7" transform="translate(580.6 4.6)" fill="#333">Video Ads</text>
<path d="M-1 0.4l86 0l0 13.2l-86 0Z" transform="translate(580.6 4.6)" fill="transparent" ecmeta_series_index="2" ecmeta_data_index="2" ecmeta_ssr_type="legend" class="zr0-cls-9"></path>
<path d="M0 7L25 7" transform="translate(676.56 4.6)" fill="#000" stroke="#ee6666" stroke-width="2" stroke-linecap="butt" stroke-miterlimit="10" class="zr0-cls-0"></path>
<path d="M18.1 7A5.6 5.6 0 1 1 18.1 6.4A5.6 5.6 0 0 1 18.1 7" transform="translate(676.56 4.6)" fill="#fff" stroke="#ee6666" stroke-width="2" stroke-linecap="butt" stroke-miterlimit="10" class="zr0-cls-0"></path>
<text dominant-baseline="central" text-anchor="start" style="font-size:12px;font-family:sans-serif;" x="30" y="7" transform="translate(676.56 4.6)" fill="#333">Direct</text>
<path d="M-1 0.4l62.3 0l0 13.2l-62.3 0Z" transform="translate(676.56 4.6)" fill="transparent" ecmeta_series_index="3" ecmeta_data_index="3" ecmeta_ssr_type="legend" class="zr0-cls-9"></path>
<path d="M0 7L25 7" transform="translate(748.88 4.6)" fill="#000" stroke="#73c0de" stroke-width="2" stroke-linecap="butt" stroke-miterlimit="10" class="zr0-cls-0"></path>
<path d="M18.1 7A5.6 5.6 0 1 1 18.1 6.4A5.6 5.6 0 0 1 18.1 7" transform="translate(748.88 4.6)" fill="#fff" stroke="#73c0de" stroke-width="2" stroke-linecap="butt" stroke-miterlimit="10" class="zr0-cls-0"></path>
<text dominant-baseline="central" text-anchor="start" style="font-size:12px;font-family:sans-serif;" xml:space="preserve" x="30" y="7" transform="translate(748.88 4.6)" fill="#333">Search Engine</text>
<path d="M-1 0.4l110.1 0l0 13.2l-110.1 0Z" transform="translate(748.88 4.6)" fill="transparent" ecmeta_series_index="4" ecmeta_data_index="4" ecmeta_ssr_type="legend" class="zr0-cls-9"></path>
<defs >
<clipPath id="zr0-c0">
<path d="M75 59l1146 0l0 620.4l-1146 0Z" fill="#000" class="zr0-cls-1"></path>
</clipPath>
<clipPath id="zr0-c1">
<path d="M75 59l1146 0l0 620.4l-1146 0Z" fill="#000" class="zr0-cls-1"></path>
</clipPath>
<clipPath id="zr0-c2">
<path d="M75 59l1146 0l0 620.4l-1146 0Z" fill="#000" class="zr0-cls-1"></path>
</clipPath>
<clipPath id="zr0-c3">
<path d="M75 59l1146 0l0 620.4l-1146 0Z" fill="#000" class="zr0-cls-1"></path>
</clipPath>
<clipPath id="zr0-c4">
<path d="M75 59l1146 0l0 620.4l-1146 0Z" fill="#000" class="zr0-cls-1"></path>
</clipPath>
</defs>
<style ><![CDATA[
.zr0-cls-0:hover {
pointer-events:none;
}
.zr0-cls-1:hover {
cursor:pointer;
fill:rgba(0,0,0,1);
}
.zr0-cls-2:hover {
cursor:pointer;
fill:rgba(92,123,217,1);
}
.zr0-cls-3:hover {
cursor:pointer;
fill:rgba(159,224,128,1);
}
.zr0-cls-4:hover {
cursor:pointer;
fill:rgba(255,220,96,1);
}
.zr0-cls-5:hover {
cursor:pointer;
fill:rgba(255,112,112,1);
}
.zr0-cls-6:hover {
cursor:pointer;
fill:rgba(126,211,244,1);
}
.zr0-cls-7:hover {
cursor:pointer;
}
.zr0-cls-8:hover {
cursor:pointer;
fill:rgba(255,255,255,1);
}
.zr0-cls-9:hover {
cursor:pointer;
fill:rgba(0,0,0,0);
}

]]>

</style>
</svg>